<?xml version="1.0" encoding="UTF-8" standalone="no"?>
<!--?xml version="1.0" encoding="utf-8"?-->

<!-- Generator: Adobe Illustrator 18.1.1, SVG Export Plug-In . SVG Version: 6.00 Build 0)  -->

<svg
   xmlns:dc="http://purl.org/dc/elements/1.1/"
   xmlns:cc="http://creativecommons.org/ns#"
   xmlns:rdf="http://www.w3.org/1999/02/22-rdf-syntax-ns#"
   xmlns:svg="http://www.w3.org/2000/svg"
   xmlns="http://www.w3.org/2000/svg"
   xmlns:sodipodi="http://sodipodi.sourceforge.net/DTD/sodipodi-0.dtd"
   xmlns:inkscape="http://www.inkscape.org/namespaces/inkscape"
   version="1.1"
   id="_x32_"
   x="0px"
   y="0px"
   viewBox="0 0 512 512"
   xml:space="preserve"
   inkscape:version="0.48.1 "
   width="100%"
   height="100%"
   sodipodi:docname="icon-sound-on.svg"><metadata
   id="metadata13"><rdf:RDF><cc:Work
       rdf:about=""><dc:format>image/svg+xml</dc:format><dc:type
         rdf:resource="http://purl.org/dc/dcmitype/StillImage" /></cc:Work></rdf:RDF></metadata><defs
   id="defs11" /><sodipodi:namedview
   pagecolor="#ffffff"
   bordercolor="#666666"
   borderopacity="1"
   objecttolerance="10"
   gridtolerance="10"
   guidetolerance="10"
   inkscape:pageopacity="0"
   inkscape:pageshadow="2"
   inkscape:window-width="1600"
   inkscape:window-height="838"
   id="namedview9"
   showgrid="false"
   inkscape:zoom="0.5859375"
   inkscape:cx="-83.626667"
   inkscape:cy="256"
   inkscape:window-x="-8"
   inkscape:window-y="-8"
   inkscape:window-maximized="1"
   inkscape:current-layer="_x32_" />
<style
   type="text/css"
   id="style3">
	.st0{fill:#4B4B4B;}
</style>
<g
   id="g5">
	<path
   class="st0"
   d="M473.96,7.314C465.487,2.438,456.035,0,446.585,0c-9.524,0-19.059,2.486-27.592,7.447L237.924,112.748H121.891   c-61.401,0-111.372,49.888-111.372,111.192v64.13c0,61.317,49.972,111.204,111.372,111.204h116.032l181.069,105.289   c8.533,4.962,18.069,7.436,27.592,7.436c9.45,0,18.902-2.439,27.375-7.315c17.02-9.801,27.521-27.931,27.521-47.581V54.896   C501.481,35.257,490.98,17.102,473.96,7.314z M220.7,344.379h-98.809c-31.189,0-56.476-25.216-56.476-56.308v-64.13   c0-31.093,25.287-56.307,56.476-56.307H220.7V344.379z M446.585,457.104L252.723,344.379V167.633h0.012l193.85-112.737V457.104z"
   style="fill:#0000ff;fill-opacity:1"
   id="path7" />
</g>
</svg>
