<!--?xml version="1.0" encoding="utf-8"?-->
<!-- Generator: Adobe Illustrator 18.1.1, SVG Export Plug-In . SVG Version: 6.00 Build 0)  -->

<svg version="1.1" id="_x32_" xmlns="http://www.w3.org/2000/svg" xmlns:xlink="http://www.w3.org/1999/xlink" x="0px" y="0px" viewBox="0 0 512 512" xml:space="preserve">
<style type="text/css">
	.st0{fill:#4B4B4B;}
</style>
<g>
	<path class="st0" d="M473.96,7.314C465.487,2.438,456.035,0,446.585,0c-9.524,0-19.059,2.486-27.592,7.447L237.924,112.748H121.891
		c-61.401,0-111.372,49.888-111.372,111.192v64.13c0,61.317,49.972,111.204,111.372,111.204h116.032l181.069,105.289
		c8.533,4.962,18.069,7.436,27.592,7.436c9.45,0,18.902-2.439,27.375-7.315c17.02-9.801,27.521-27.931,27.521-47.581V54.896
		C501.481,35.257,490.98,17.102,473.96,7.314z M220.7,344.379h-98.809c-31.189,0-56.476-25.216-56.476-56.308v-64.13
		c0-31.093,25.287-56.307,56.476-56.307H220.7V344.379z M446.585,457.104L252.723,344.379V167.633h0.012l193.85-112.737V457.104z" style="fill: rgb(75, 75, 75);"></path>
</g>
</svg>
